<svg version="1.2" xmlns="http://www.w3.org/2000/svg" viewBox="0 0 24 24" width="24" height="24" style="background-color: #f1f5f9">
	<title>user-svg</title>
	<style>
		.s0 { fill: none } 
		.s1 { fill: none;stroke: #000000;stroke-linecap: round;stroke-linejoin: round;stroke-width: 1 } 
	</style>
	<path id="Layer" class="s0" d="m0 0h24v24h-24z"/>
	<path id="Layer" class="s1" d="m9.3 9.7c0 0.7 0.3 1.4 0.8 1.9 0.5 0.5 1.2 0.7 1.9 0.7 0.7 0 1.4-0.2 1.9-0.7 0.5-0.5 0.8-1.2 0.8-1.9 0-0.7-0.3-1.4-0.8-1.9-0.5-0.5-1.2-0.8-1.9-0.8-0.7 0-1.4 0.3-1.9 0.8-0.5 0.5-0.8 1.2-0.8 1.9z"/>
	<path id="Layer" class="s1" d="m8 19v-1.3q0-0.6 0.2-1.1 0.2-0.4 0.6-0.8 0.4-0.4 0.8-0.6 0.5-0.2 1.1-0.2h2.6q0.6 0 1.1 0.2 0.4 0.2 0.8 0.6 0.4 0.4 0.6 0.8 0.2 0.5 0.2 1.1v1.3"/>
</svg>